<svg width="30" height="26" viewBox="0 0 30 26" xmlns="http://www.w3.org/2000/svg"><title>Slice 1</title><path d="M30 .578c-.445 2.251-.829 4.302-1.26 6.342-1.208 5.728-2.433 11.451-3.658 17.175-.33 1.548-.893 1.765-2.214.87-2.113-1.43-4.239-2.842-6.323-4.311-.573-.404-.91-.346-1.388.128-1.028 1.02-2.124 1.972-3.186 2.957-.76.704-1.185.653-1.516-.323a206.64 206.64 0 0 1-2.282-7.118c-.239-.797-.613-1.259-1.434-1.53-1.816-.596-3.592-1.314-5.381-1.99-.27-.102-.546-.21-.784-.368-.773-.51-.765-1.138.024-1.616a6.42 6.42 0 0 1 1.024-.472C10.392 6.963 19.162 3.606 27.936.26c.398-.152.85-.3 1.254-.252.303.036.568.388.81.57zm-18.893 20.4l.183.017c.134-1.03.288-2.058.395-3.09.075-.72.332-1.287.875-1.81 3.737-3.598 7.442-7.23 11.155-10.854.102-.1.173-.232.259-.35-1.252.685-2.416 1.444-3.58 2.202-3.498 2.277-6.996 4.553-10.49 6.834-.35.228-.809.386-.626.984.62 2.02 1.22 4.045 1.829 6.068z" fill="#FFD530" fill-rule="evenodd"/></svg>