<svg width="26" height="18" viewBox="0 0 26 18" xmlns="http://www.w3.org/2000/svg"><title>Slice 1</title><path d="M5.109 13.891C1.618 11.83 0 9 0 9s4-7 13-7c1.305 0 2.504.147 3.601.399l-.85.85a15.115 15.115 0 0 0-2.752-.248c-8 0-11.8 6-11.8 6s1.515 2.392 4.645 4.155l-.736.736.001-.001zm4.29 1.71A16.1 16.1 0 0 0 13 16c9 0 13-7 13-7s-1.617-2.83-5.109-4.891l-.736.736C23.285 6.608 24.8 9 24.8 9S21 15 13 15c-.98 0-1.897-.09-2.752-.248l-.85.85.001-.001zm7.5-7.5a4 4 0 0 1-4.798 4.798L13 12c.768 0 1.536-.293 2.121-.879A2.991 2.991 0 0 0 16 9l.899-.899zm-3-3a4 4 0 0 0-4.798 4.798L10 9c0-.768.293-1.536.879-2.121A2.991 2.991 0 0 1 13 6l.899-.899zM21 0L4 17l1 1L22 1l-1-1z" fill="#929292" fill-rule="evenodd"/></svg>