<svg viewBox="0 0 33 35" xmlns="http://www.w3.org/2000/svg"><path d="M32.317 28.512c0 3.937-10.067 5.736-16.028 5.736-5.961 0-15.972-1.8-15.972-5.736 0-.619.225-1.181.675-1.687 5.455-11.192 4.05-16.422 7.03-20.584 1.35-1.856 2.924-3.037 5.455-3.6C13.589 1.18 14.77.056 16.289.056c1.462 0 2.7 1.125 2.812 2.587 2.53.562 4.105 1.743 5.455 3.6 2.98 4.16 1.575 9.391 7.03 20.583.45.506.731 1.068.731 1.687zm-3.318-1.125c-2.306-2.756-8.267-3.318-12.71-3.318-4.387 0-10.404.562-12.71 3.318 2.306 2.756 8.323 3.43 12.71 3.375 4.443 0 10.404-.563 12.71-3.375zm-15.24-1.35c0-.337 1.742-.393 2.53-.393 1.968 0 2.53.168 2.53.393 0 1.575-1.124 2.812-2.53 2.812-1.406 0-2.53-1.237-2.53-2.812z" fill="#ffd530"/></svg>