<svg width="22" height="18" viewBox="0 0 22 18" xmlns="http://www.w3.org/2000/svg"><title>Slice 1</title><path d="M.14 0A.142.142 0 0 0 0 .145v17.71c0 .08.063.145.14.145h21.719c.078 0 .14-.065.14-.145V.145a.143.143 0 0 0-.14-.145H.14zM1 1v16h20V1H1zm7.311 2.966l3.257 5.624c.04.069.127.087.191.042l2.763-1.943a.27.27 0 0 1 .388.076l5.021 7.859c.085.133.024.241-.126.241H2.149c-.155 0-.222-.113-.149-.254L7.716 4.59l.322-.62c.073-.14.198-.139.276-.004h-.003zM17.5 6a1.5 1.5 0 1 0-.001-3.001A1.5 1.5 0 0 0 17.5 6z" fill-rule="evenodd"/></svg>