<svg width="22" height="21" viewBox="0 0 22 21" xmlns="http://www.w3.org/2000/svg"><title>Slice 1</title><path d="M.14 4C.062 4 0 4.058 0 4.129v15.742c0 .071.063.129.14.129h21.719c.078 0 .14-.058.14-.129V4.129c0-.071-.063-.129-.14-.129H.14zM1 5v14h20V5H1zm7.311 2.966l3.257 5.624c.04.069.127.087.191.042l2.763-1.943a.27.27 0 0 1 .388.076l5.021 5.859c.085.133.024.241-.126.241H2.149c-.155 0-.222-.113-.149-.254L8.037 7.97c.073-.14.198-.139.276-.004h-.002zM17.5 9a1.5 1.5 0 1 0-.001-3.001A1.5 1.5 0 0 0 17.5 9zM2 0v1h18V0H2zM1 2v1h20V2H1z" fill-rule="evenodd"/></svg>