<?xml version="1.0" encoding="UTF-8"?>
<svg width="140px" height="140px" viewBox="0 0 140 140" version="1.1" xmlns="http://www.w3.org/2000/svg" xmlns:xlink="http://www.w3.org/1999/xlink" xmlns:sketch="http://www.bohemiancoding.com/sketch/ns">
    <!-- Generator: Sketch 3.3.3 (12081) - http://www.bohemiancoding.com/sketch -->
    <title>Untitled 6</title>
    <desc>Created with Sketch.</desc>
    <defs></defs>
    <g id="Page-1" stroke="none" stroke-width="1" fill="none" fill-rule="evenodd" sketch:type="MSPage">
        <g id="left-arrow-inside-a-circle" sketch:type="MSLayerGroup" fill="#00FF73">
            <path d="M130.610936,35.0072126 C111.284334,1.53179469 68.4783795,-9.93933928 35.0063054,9.38919379 C1.53155672,28.715052 -9.93887716,71.5270662 9.39129131,105.006942 C28.7152191,138.481469 71.5198364,149.954386 104.992356,130.626298 C138.467551,111.295536 149.939768,68.4857512 130.610936,35.0072126 L130.610936,35.0072126 Z M97.9951776,118.497149 C71.2158244,133.960065 36.9725763,124.78931 21.5125426,98.0037149 C6.04894274,71.2234697 15.2250224,36.97368 42.0052671,21.511656 C68.7828372,6.04963199 103.027868,15.2261825 118.488794,42.0095484 C133.950165,68.7920226 124.773193,103.034679 97.9951776,118.497149 Z M112.006757,44.1823492 L105.347014,37.5280077 C104.125576,36.3075608 102.137104,36.3075608 100.915667,37.5280077 L61.0008265,77.4141015 L42.0140133,58.3082957 C40.7780347,57.0842165 38.7968336,57.0842165 37.5681254,58.3082957 L30.9192873,64.9517404 C29.6905791,66.1758196 29.6905791,68.1663104 30.9192873,69.3867573 L52.0363461,90.6428743 L52.1090507,90.7409459 L56.7039831,95.3394155 L57.7763764,96.4109388 L58.761524,97.3916551 C59.9829618,98.612102 61.9714333,98.612102 63.2001415,97.3916551 L112.006757,48.6173661 C113.228195,47.3969192 113.228195,45.3991638 112.006757,44.1823492 Z" id="Shape" sketch:type="MSShapeGroup"></path>
        </g>
    </g>
</svg>