<?xml version="1.0" encoding="iso-8859-1"?>
<!-- Generator: Adobe Illustrator 18.1.1, SVG Export Plug-In . SVG Version: 6.00 Build 0)  -->
<svg xmlns="http://www.w3.org/2000/svg" xmlns:xlink="http://www.w3.org/1999/xlink" version="1.1" id="Capa_1" x="0px" y="0px" viewBox="0 0 445.839 445.839" style="enable-background:new 0 0 445.839 445.839;" xml:space="preserve" width="512px" height="512px">
<g>
	<polygon points="393.963,97.725 304.674,97.725 304.674,8.437  " fill="#D80027"/>
	<polygon points="217.594,106.258 306.882,195.546 217.594,195.546  " fill="#D80027"/>
	<path d="M327.253,348.018V201.513c0-0.131-0.066-0.251-0.078-0.376c-0.036-0.525-0.131-1.032-0.304-1.533   c-0.072-0.191-0.119-0.376-0.197-0.561c-0.292-0.632-0.656-1.235-1.169-1.748L215.846,87.635c-0.513-0.513-1.116-0.877-1.748-1.17   c-0.185-0.084-0.37-0.131-0.561-0.197c-0.501-0.173-1.008-0.274-1.539-0.304c-0.125-0.006-0.245-0.078-0.376-0.078h-81.102V0   h162.221v103.692c0,3.294,2.667,5.967,5.967,5.967H402.4v238.359H327.253z" fill="#D80027"/>
	<path d="M211.627,207.48c-3.294,0-5.967-2.673-5.967-5.967V97.821h-81.108H43.439v348.018h271.88v-91.854   V207.48H211.627z M227.863,277.794h-42.514v42.514h-11.934v-42.514h-42.514V265.86h42.514v-42.514h11.934v42.514h42.514V277.794z" fill="#D80027"/>
</g>
<g>
</g>
<g>
</g>
<g>
</g>
<g>
</g>
<g>
</g>
<g>
</g>
<g>
</g>
<g>
</g>
<g>
</g>
<g>
</g>
<g>
</g>
<g>
</g>
<g>
</g>
<g>
</g>
<g>
</g>
</svg>
