<?xml version="1.0" encoding="UTF-8"?>
<svg width="62px" height="81px" viewBox="0 0 62 81" version="1.1" xmlns="http://www.w3.org/2000/svg" xmlns:xlink="http://www.w3.org/1999/xlink" xmlns:sketch="http://www.bohemiancoding.com/sketch/ns">
    <!-- Generator: Sketch 3.3.3 (12081) - http://www.bohemiancoding.com/sketch -->
    <title>Untitled 7</title>
    <desc>Created with Sketch.</desc>
    <defs></defs>
    <g id="Page-1" stroke="none" stroke-width="1" fill-rule="evenodd" sketch:type="MSPage">
        <g id="antivirus" sketch:type="MSLayerGroup">
            <path d="M60.6475106,10.7757 C41.039766,10.7757 32.2720426,0.5616 32.1875957,0.4617 C31.678234,-0.1539 30.6380638,-0.1539 30.1287021,0.4617 C30.0429149,0.5643 21.3663404,10.7757 1.66878723,10.7757 C0.92887234,10.7757 0.328361702,11.3805 0.328361702,12.1257 L0.328361702,37.89045 C0.328361702,51.975 6.61495745,65.36025 17.1453404,73.6938 C21.3904681,77.05395 25.9760638,79.4853 30.7761277,80.919 C30.9007872,80.9568 31.0294681,80.9757 31.1581489,80.9757 C31.2868298,80.9757 31.4141702,80.9568 31.5401702,80.919 C36.340234,79.48395 40.9258298,77.05395 45.1709574,73.6938 C55.7013404,65.3589 61.9879362,51.975 61.9879362,37.89045 L61.9879362,12.1257 C61.9879362,11.3805 61.3874255,10.7757 60.6475106,10.7757 L60.6475106,10.7757 Z M59.3070851,37.89045 C59.3070851,51.15285 53.4038511,63.7443 43.5141915,71.5716 C39.6497447,74.6307 35.4944255,76.8636 31.1581489,78.21495 C26.8218723,76.86495 22.6665532,74.6307 18.8021064,71.5716 C8.91244681,63.74565 3.00921277,51.15285 3.00921277,37.89045 L3.00921277,13.46085 C19.4187021,13.09365 28.2963404,6.0399 31.1581489,3.2751 C34.0199574,6.04125 42.8975957,13.09365 59.3070851,13.46085 L59.3070851,37.89045 L59.3070851,37.89045 Z" id="Shape" sketch:type="MSShapeGroup"></path>
            <path d="M30.4048298,10.7811 C26.3634468,13.54725 19.4629362,17.11125 9.54244681,18.38565 C8.87223404,18.47205 8.37091489,19.0458 8.37091489,19.72485 L8.37091489,37.8918 C8.37091489,49.51125 13.508766,60.5151 22.1156383,67.3272 C24.8259787,69.47235 27.7038723,71.15445 30.6688936,72.32625 C30.8270638,72.38835 30.9919362,72.4194 31.1581489,72.4194 C31.3243617,72.4194 31.4905745,72.38835 31.6474043,72.32625 C34.6097447,71.1558 37.4889787,69.4737 40.202,67.3272 C48.8075319,60.5151 53.945383,49.51125 53.945383,37.8918 L53.945383,19.72485 C53.945383,19.0458 53.4440638,18.47205 52.7738511,18.38565 C42.8533617,17.11125 35.9528511,13.54725 31.9114681,10.7811 C31.4570638,10.46925 30.859234,10.46925 30.4048298,10.7811 L30.4048298,10.7811 Z M37.8602766,33.7257 C37.8602766,35.57925 37.0895319,37.34775 35.7638511,38.61405 L39.1604894,52.29765 C39.2610213,52.7013 39.1698723,53.1279 38.9165319,53.45595 C38.6631915,53.784 38.2731277,53.9757 37.8602766,53.9757 L24.4560213,53.9757 C24.0431702,53.9757 23.6531064,53.784 23.399766,53.45595 C23.1464255,53.1279 23.0552766,52.7013 23.1558085,52.29765 L26.5524468,38.61405 C25.226766,37.34775 24.4560213,35.57925 24.4560213,33.7257 C24.4560213,30.00375 27.4625957,26.9757 31.1581489,26.9757 C34.8537021,26.9757 37.8602766,30.00375 37.8602766,33.7257 L37.8602766,33.7257 Z" id="Shape" sketch:type="MSShapeGroup"></path>
        </g>
    </g>
</svg>